<svg width="1950" height="450" viewBox="0 0 1950 450" fill="none" xmlns="http://www.w3.org/2000/svg">
<g clip-path="url(#clip0_145_2)">
<rect width="1950" height="450" fill="white"/>
<rect width="1950" height="450" fill="black"/>
<path d="M636.367 248.112C636.282 248.624 636.239 249.307 636.239 250.16C636.239 251.867 636.709 253.104 637.647 253.872C638.671 254.555 640.335 254.896 642.639 254.896H651.087L648.399 270H637.007C624.207 270 617.807 264.667 617.807 254C617.807 251.952 617.978 249.947 618.319 247.984L624.335 213.808H615.887L618.447 199.088H627.023L630.095 181.552H648.143L645.071 199.088H660.815L658.255 213.808H642.383L636.367 248.112ZM683.369 271.089C677.642 271.089 672.56 269.919 668.123 267.58C663.767 265.241 660.379 261.933 657.959 257.658C655.539 253.383 654.329 248.462 654.329 242.896C654.329 235.313 656.104 228.416 659.653 222.205C663.283 215.913 668.204 210.952 674.415 207.322C680.707 203.692 687.685 201.877 695.348 201.877C701.076 201.877 706.158 203.087 710.594 205.507C715.112 207.846 718.58 211.154 721 215.429C723.501 219.704 724.751 224.625 724.751 230.191C724.751 237.854 722.936 244.792 719.306 251.003C715.676 257.214 710.675 262.135 704.302 265.765C698.01 269.314 691.033 271.089 683.369 271.089ZM685.668 256.569C689.702 256.569 693.372 255.399 696.679 253.06C699.987 250.721 702.568 247.615 704.423 243.743C706.279 239.871 707.206 235.797 707.206 231.522C707.206 226.682 705.835 222.971 703.092 220.39C700.43 217.728 697.042 216.397 692.928 216.397C688.814 216.397 685.144 217.567 681.917 219.906C678.771 222.245 676.311 225.391 674.536 229.344C672.762 233.216 671.874 237.33 671.874 241.686C671.874 246.445 673.125 250.116 675.625 252.697C678.207 255.278 681.554 256.569 685.668 256.569ZM750.125 214.824C753.029 210.791 756.417 207.645 760.289 205.386C764.161 203.127 768.355 201.998 772.873 201.998L769.727 219.785H765.25C760.248 219.785 756.215 220.874 753.15 223.052C750.165 225.23 747.987 228.941 746.616 234.184L740.324 270H723.263L735.121 202.966H752.182L750.125 214.824ZM766.496 236.362C767.706 229.667 770.166 223.738 773.877 218.575C777.587 213.332 782.064 209.258 787.308 206.354C792.632 203.45 798.157 201.998 803.885 201.998C808.644 201.998 812.718 202.926 816.106 204.781C819.494 206.556 821.994 208.855 823.608 211.678L825.181 202.966H842.242L824.818 301.944H807.757L814.896 260.804C812.153 263.708 808.725 266.128 804.611 268.064C800.577 270 796.141 270.968 791.301 270.968C786.38 270.968 781.984 269.839 778.112 267.58C774.24 265.321 771.215 262.135 769.037 258.021C766.859 253.907 765.77 249.148 765.77 243.743C765.77 241.323 766.012 238.863 766.496 236.362ZM819.252 236.483C819.494 234.87 819.615 233.377 819.615 232.006C819.615 227.166 818.203 223.415 815.38 220.753C812.637 218.091 809.209 216.76 805.095 216.76C802.11 216.76 799.125 217.526 796.141 219.059C793.156 220.592 790.534 222.85 788.276 225.835C786.098 228.739 784.646 232.248 783.92 236.362C783.678 237.895 783.557 239.387 783.557 240.839C783.557 245.598 784.968 249.349 787.792 252.092C790.615 254.835 794.043 256.206 798.077 256.206C801.142 256.206 804.127 255.44 807.031 253.907C810.015 252.374 812.597 250.116 814.775 247.131C817.033 244.146 818.526 240.597 819.252 236.483ZM891.647 214.824C894.551 210.791 897.939 207.645 901.811 205.386C905.683 203.127 909.878 201.998 914.395 201.998L911.249 219.785H906.772C901.771 219.785 897.738 220.874 894.672 223.052C891.688 225.23 889.51 228.941 888.138 234.184L881.846 270H864.785L876.643 202.966H893.704L891.647 214.824ZM936.453 271.089C930.726 271.089 925.644 269.919 921.207 267.58C916.851 265.241 913.463 261.933 911.043 257.658C908.623 253.383 907.413 248.462 907.413 242.896C907.413 235.313 909.188 228.416 912.737 222.205C916.367 215.913 921.288 210.952 927.499 207.322C933.791 203.692 940.769 201.877 948.432 201.877C954.16 201.877 959.242 203.087 963.678 205.507C968.196 207.846 971.664 211.154 974.084 215.429C976.585 219.704 977.835 224.625 977.835 230.191C977.835 237.854 976.02 244.792 972.39 251.003C968.76 257.214 963.759 262.135 957.386 265.765C951.094 269.314 944.117 271.089 936.453 271.089ZM938.752 256.569C942.786 256.569 946.456 255.399 949.763 253.06C953.071 250.721 955.652 247.615 957.507 243.743C959.363 239.871 960.29 235.797 960.29 231.522C960.29 226.682 958.919 222.971 956.176 220.39C953.514 217.728 950.126 216.397 946.012 216.397C941.898 216.397 938.228 217.567 935.001 219.906C931.855 222.245 929.395 225.391 927.62 229.344C925.846 233.216 924.958 237.33 924.958 241.686C924.958 246.445 926.209 250.116 928.709 252.697C931.291 255.278 934.638 256.569 938.752 256.569ZM1003.57 212.767C1006.23 209.54 1009.66 206.919 1013.86 204.902C1018.05 202.885 1022.61 201.877 1027.53 201.877C1032.53 201.877 1036.93 202.966 1040.72 205.144C1044.59 207.241 1047.58 210.307 1049.67 214.34C1051.77 218.373 1052.82 223.092 1052.82 228.497C1052.82 230.998 1052.58 233.579 1052.09 236.241C1050.88 243.098 1048.46 249.188 1044.83 254.512C1041.2 259.755 1036.81 263.829 1031.64 266.733C1026.48 269.637 1021.08 271.089 1015.43 271.089C1010.43 271.089 1006.19 270.121 1002.72 268.185C999.256 266.168 996.715 263.587 995.101 260.441L993.407 270H976.346L992.197 180.46H1009.26L1003.57 212.767ZM1034.79 236.241C1035.03 234.628 1035.15 233.176 1035.15 231.885C1035.15 227.126 1033.78 223.415 1031.04 220.753C1028.3 218.091 1024.79 216.76 1020.51 216.76C1017.45 216.76 1014.42 217.567 1011.44 219.18C1008.45 220.713 1005.87 222.971 1003.69 225.956C1001.51 228.941 1000.06 232.45 999.336 236.483C999.014 238.58 998.852 240.113 998.852 241.081C998.852 245.84 1000.22 249.551 1002.97 252.213C1005.79 254.875 1009.3 256.206 1013.49 256.206C1016.64 256.206 1019.7 255.399 1022.69 253.786C1025.67 252.173 1028.26 249.874 1030.43 246.889C1032.61 243.904 1034.06 240.355 1034.79 236.241ZM1081.1 271.089C1075.37 271.089 1070.29 269.919 1065.85 267.58C1061.5 265.241 1058.11 261.933 1055.69 257.658C1053.27 253.383 1052.06 248.462 1052.06 242.896C1052.06 235.313 1053.83 228.416 1057.38 222.205C1061.01 215.913 1065.93 210.952 1072.15 207.322C1078.44 203.692 1085.42 201.877 1093.08 201.877C1098.81 201.877 1103.89 203.087 1108.33 205.507C1112.84 207.846 1116.31 211.154 1118.73 215.429C1121.23 219.704 1122.48 224.625 1122.48 230.191C1122.48 237.854 1120.67 244.792 1117.04 251.003C1113.41 257.214 1108.41 262.135 1102.03 265.765C1095.74 269.314 1088.76 271.089 1081.1 271.089ZM1083.4 256.569C1087.43 256.569 1091.1 255.399 1094.41 253.06C1097.72 250.721 1100.3 247.615 1102.15 243.743C1104.01 239.871 1104.94 235.797 1104.94 231.522C1104.94 226.682 1103.57 222.971 1100.82 220.39C1098.16 217.728 1094.77 216.397 1090.66 216.397C1086.55 216.397 1082.87 217.567 1079.65 219.906C1076.5 222.245 1074.04 225.391 1072.27 229.344C1070.49 233.216 1069.61 237.33 1069.61 241.686C1069.61 246.445 1070.86 250.116 1073.36 252.697C1075.94 255.278 1079.29 256.569 1083.4 256.569ZM1144.47 249.309C1144.39 249.793 1144.35 250.438 1144.35 251.245C1144.35 252.858 1144.79 254.028 1145.68 254.754C1146.65 255.399 1148.22 255.722 1150.4 255.722H1158.38L1155.84 270H1145.07C1132.97 270 1126.92 264.958 1126.92 254.875C1126.92 252.939 1127.08 251.043 1127.41 249.188L1133.09 216.881H1125.11L1127.53 202.966H1135.63L1138.54 186.389H1155.6L1152.7 202.966H1167.58L1165.16 216.881H1150.15L1144.47 249.309ZM1182.55 194.98C1179.88 194.98 1177.75 194.214 1176.13 192.681C1174.52 191.148 1173.71 189.212 1173.71 186.873C1173.71 183.646 1174.92 180.904 1177.34 178.645C1179.84 176.306 1182.75 175.136 1186.05 175.136C1188.64 175.136 1190.73 175.902 1192.35 177.435C1193.96 178.968 1194.77 180.904 1194.77 183.243C1194.77 186.47 1193.56 189.253 1191.14 191.592C1188.72 193.851 1185.85 194.98 1182.55 194.98ZM1189.56 202.966L1177.71 270H1160.64L1172.5 202.966H1189.56ZM1188.76 236.483C1189.97 229.546 1192.43 223.496 1196.14 218.333C1199.85 213.09 1204.44 209.056 1209.93 206.233C1215.5 203.329 1221.51 201.877 1227.96 201.877C1236.27 201.877 1242.76 203.934 1247.44 208.048C1252.2 212.162 1254.86 218.01 1255.43 225.593H1237.16C1236.67 222.689 1235.42 220.43 1233.4 218.817C1231.39 217.123 1228.69 216.276 1225.3 216.276C1220.46 216.276 1216.3 218.051 1212.83 221.6C1209.45 225.069 1207.19 230.03 1206.06 236.483C1205.65 238.742 1205.45 240.678 1205.45 242.291C1205.45 246.889 1206.58 250.438 1208.84 252.939C1211.1 255.359 1214.25 256.569 1218.28 256.569C1225.06 256.569 1230.06 253.504 1233.28 247.373H1251.55C1248.41 254.633 1243.69 260.401 1237.4 264.676C1231.19 268.951 1224.01 271.089 1215.86 271.089C1207.39 271.089 1200.61 268.709 1195.53 263.95C1190.53 259.11 1188.03 252.576 1188.03 244.348C1188.03 241.847 1188.27 239.226 1188.76 236.483ZM1278.85 271.089C1273.93 271.089 1269.45 270.282 1265.42 268.669C1261.46 266.975 1258.32 264.676 1255.98 261.772C1253.72 258.787 1252.59 255.399 1252.59 251.608C1252.59 251.043 1252.67 250.116 1252.83 248.825H1269.29C1269.05 251.648 1269.89 253.947 1271.83 255.722C1273.77 257.416 1276.51 258.263 1280.06 258.263C1283.28 258.263 1285.95 257.698 1288.04 256.569C1290.22 255.359 1291.31 253.625 1291.31 251.366C1291.31 249.349 1290.3 247.736 1288.29 246.526C1286.35 245.316 1283.24 243.945 1278.97 242.412C1274.69 240.879 1271.14 239.387 1268.32 237.935C1265.5 236.483 1263.08 234.466 1261.06 231.885C1259.04 229.304 1258.04 226.037 1258.04 222.084C1258.04 218.131 1259.16 214.622 1261.42 211.557C1263.76 208.492 1266.99 206.112 1271.1 204.418C1275.22 202.724 1279.94 201.877 1285.26 201.877C1290.34 201.877 1294.82 202.724 1298.69 204.418C1302.56 206.112 1305.55 208.492 1307.65 211.557C1309.82 214.542 1310.91 217.97 1310.91 221.842C1310.91 222.81 1310.87 223.536 1310.79 224.02H1295.06C1295.3 221.197 1294.5 218.938 1292.64 217.244C1290.79 215.55 1288.08 214.703 1284.53 214.703C1281.63 214.703 1279.25 215.348 1277.4 216.639C1275.54 217.849 1274.61 219.503 1274.61 221.6C1274.61 223.697 1275.66 225.432 1277.76 226.803C1279.86 228.094 1283.08 229.546 1287.44 231.159C1291.79 232.853 1295.26 234.426 1297.84 235.878C1300.51 237.249 1302.81 239.185 1304.74 241.686C1306.68 244.106 1307.65 247.171 1307.65 250.882C1307.65 254.996 1306.39 258.586 1303.89 261.651C1301.39 264.716 1297.97 267.056 1293.61 268.669C1289.25 270.282 1284.33 271.089 1278.85 271.089Z" fill="white"/>
<path d="M1318.65 270.847C1315.98 270.847 1313.85 270.081 1312.23 268.548C1310.62 267.015 1309.81 265.079 1309.81 262.74C1309.81 259.513 1311.02 256.771 1313.44 254.512C1315.94 252.173 1318.85 251.003 1322.16 251.003C1324.82 251.003 1326.92 251.769 1328.45 253.302C1330.06 254.754 1330.87 256.69 1330.87 259.11C1330.87 262.337 1329.66 265.12 1327.24 267.459C1324.82 269.718 1321.95 270.847 1318.65 270.847Z" fill="#F1672A"/>
</g>
<defs>
<clipPath id="clip0_145_2">
<rect width="1950" height="450" fill="white"/>
</clipPath>
</defs>
</svg>
